<svg id="svg" version="1.1" xmlns="http://www.w3.org/2000/svg" xmlns:xlink="http://www.w3.org/1999/xlink" width="400" height="400" viewBox="0 0 400 400">
  <g id="svgg">
    <!-- Black circular base -->
    <path id="path0" d="M189.258 46.893 C 108.115 53.605,47.953 117.108,46.611 197.461 C 44.593 318.338,176.236 393.907,279.906 331.382 C 370.642 276.658,379.319 146.913,296.680 80.578 C 266.758 56.559,226.188 43.838,189.258 46.893 Z" fill="#121212"/>

    <!-- Internal white logo / text shape -->
    <path id="path1" d="M169.498 99.248 C 174.741 100.373,175.314 101.420,182.235 122.569 C 202.806 185.428,230.193 267.148,231.159 268.555 C 235.490 274.860,252.546 273.210,263.477 265.428 C 286.246 249.217,283.427 212.878,258.423 200.305 C 252.249 197.200,249.690 196.796,234.375 196.511 C 216.193 196.172,215.264 195.665,212.131 184.357 C 209.636 175.355,210.967 174.528,228.516 174.171 C 238.633 173.966,241.687 173.780,243.555 173.255 C 270.460 165.704,269.495 128.078,242.234 121.808 C 241.148 121.558,231.492 121.294,217.969 121.146 C 190.723 120.846,191.715 121.111,188.707 113.312 C 185.135 104.050,185.795 100.343,191.217 99.217 C 195.399 98.349,242.444 98.921,246.680 99.891 C 280.912 107.735,295.960 146.713,275.634 174.891 C 270.998 181.318,271.040 183.705,275.852 187.289 C 317.517 218.320,302.306 284.124,251.367 293.215 C 246.247 294.129,223.017 294.280,220.572 293.416 C 215.920 291.771,216.837 293.951,202.647 250.781 C 198.539 238.285,197.807 236.896,194.336 235.023 C 192.233 233.888,135.173 233.470,131.417 234.562 C 126.592 235.964,126.467 236.228,117.390 264.063 C 109.478 288.326,108.652 290.402,106.215 292.168 C 102.043 295.190,90.984 294.746,88.808 291.470 C 87.268 289.153,87.554 288.074,98.179 256.049 C 103.666 239.509,117.118 198.953,128.073 165.925 C 148.198 105.247,149.130 102.656,151.482 100.862 C 153.967 98.967,163.996 98.068,169.498 99.248 M160.847 135.965 C 158.915 137.091,158.960 136.968,146.849 174.023 C 136.241 206.480,136.025 207.323,137.727 209.637 C 139.459 211.992,140.294 212.075,162.109 212.075 C 186.772 212.075,187.339 211.945,187.282 206.318 C 187.258 203.933,167.810 142.989,165.820 139.061 C 164.335 136.131,162.511 134.995,160.847 135.965" fill="#ffffff"/>
  </g>
</svg>
