<svg id="svg" version="1.1" xmlns="http://www.w3.org/2000/svg" xmlns:xlink="http://www.w3.org/1999/xlink" width="400" height="400" viewBox="0, 0, 400,400"><g id="svgg"><path id="path0" d="M138.300 83.758 C 138.135 84.205,133.817 97.139,128.705 112.500 C 123.594 127.861,119.307 140.518,119.178 140.625 C 119.050 140.732,118.945 141.013,118.945 141.247 C 118.945 142.215,94.714 213.980,94.443 213.813 C 94.282 213.713,94.238 213.862,94.347 214.145 C 94.455 214.428,88.323 233.245,80.720 255.962 L 66.896 297.266 80.323 297.266 C 92.851 297.266,93.750 297.220,93.748 296.582 C 93.747 296.206,98.600 281.353,104.532 263.574 L 115.317 231.250 153.517 231.250 L 191.716 231.250 193.274 235.645 C 195.240 241.187,195.737 242.989,195.433 243.481 C 195.300 243.695,195.365 243.764,195.576 243.633 C 196.048 243.342,198.949 252.223,198.579 252.822 C 198.435 253.055,198.478 253.146,198.674 253.025 C 199.138 252.738,205.220 270.551,204.923 271.326 C 204.798 271.650,204.853 271.819,205.043 271.701 C 205.332 271.522,210.549 286.390,213.122 294.727 C 213.520 296.016,213.973 297.163,214.128 297.276 C 214.908 297.842,249.120 297.352,253.110 296.718 C 311.842 287.379,329.090 211.242,279.883 178.533 C 278.164 177.391,276.605 176.319,276.419 176.151 C 276.233 175.983,276.821 175.084,277.726 174.154 C 289.497 162.041,294.949 141.607,290.773 125.245 C 290.451 123.983,290.284 122.699,290.402 122.392 C 290.520 122.085,290.474 121.922,290.300 122.030 C 290.127 122.137,289.601 121.034,289.132 119.579 C 288.664 118.124,287.503 115.336,286.553 113.384 C 285.603 111.433,284.900 109.732,284.991 109.605 C 285.082 109.479,285.046 109.456,284.912 109.555 C 284.777 109.653,283.962 108.643,283.100 107.308 C 278.454 100.120,271.533 93.764,263.769 89.556 C 262.211 88.712,261.069 87.876,261.230 87.698 C 261.391 87.520,261.316 87.494,261.062 87.639 C 260.808 87.785,259.314 87.393,257.742 86.769 C 248.692 83.178,243.771 82.791,207.674 82.834 L 180.388 82.867 180.585 83.718 C 180.693 84.187,182.601 89.932,184.824 96.484 L 188.867 108.398 215.234 108.498 C 240.031 108.592,241.788 108.644,244.727 109.373 C 266.356 114.738,273.872 142.212,258.042 158.042 C 250.468 165.617,245.215 166.825,220.117 166.765 C 213.672 166.750,208.300 166.751,208.181 166.767 C 208.061 166.784,209.838 172.378,212.130 179.199 L 216.296 191.602 232.074 191.820 C 249.626 192.064,250.964 192.242,258.406 195.341 C 263.851 197.608,273.203 204.658,272.428 205.912 C 272.255 206.193,272.314 206.266,272.580 206.102 C 273.573 205.488,280.053 215.672,279.532 217.028 C 279.408 217.353,279.473 217.516,279.677 217.390 C 280.126 217.112,281.811 222.455,281.455 223.031 C 281.317 223.254,281.367 223.437,281.567 223.438 C 282.895 223.438,283.055 235.519,281.800 241.077 C 280.347 247.516,274.466 258.494,272.966 257.567 C 272.697 257.401,272.647 257.482,272.834 257.784 C 273.356 258.628,267.562 263.949,266.700 263.417 C 266.467 263.273,266.399 263.344,266.545 263.581 C 266.902 264.158,261.608 267.401,258.066 268.777 C 252.488 270.943,248.622 271.565,239.965 271.690 L 232.078 271.805 221.960 241.469 C 216.395 224.784,202.236 182.305,190.495 147.070 L 169.148 83.008 153.875 82.977 C 138.750 82.946,138.599 82.953,138.300 83.758 M168.808 161.133 C 176.937 185.410,183.590 205.405,183.591 205.566 C 183.593 205.728,170.146 205.859,153.711 205.859 C 137.275 205.859,123.828 205.771,123.828 205.664 C 123.828 205.556,129.904 187.319,137.330 165.136 C 144.756 142.954,151.479 122.827,152.271 120.411 C 153.063 117.994,153.782 116.236,153.869 116.505 C 153.956 116.773,160.678 136.855,168.808 161.133 " stroke="none" fill="#000000" fill-rule="evenodd"></path></g></svg>